<?xml version="1.0" encoding="utf-8"?>
<!-- Generator: Adobe Illustrator 16.0.0, SVG Export Plug-In . SVG Version: 6.00 Build 0)  -->
<!DOCTYPE svg PUBLIC "-//W3C//DTD SVG 1.1//EN" "http://www.w3.org/Graphics/SVG/1.1/DTD/svg11.dtd">
<svg version="1.1" id="Layer_1" xmlns="http://www.w3.org/2000/svg" xmlns:xlink="http://www.w3.org/1999/xlink" x="0px" y="0px"
	 width="1040.924px" height="447.199px" viewBox="0 0 1040.924 447.199" enable-background="new 0 0 1040.924 447.199"
	 xml:space="preserve">
<g>
	<g>
		<path fill="#034EA2" d="M886.337,314.846L771.022,155.418L654.811,314.846h-98.858L720.977,85.669
			c5.262-7.613,12.539-14.33,21.832-20.041c10.3-6.157,20.152-9.292,29.669-9.292c9.739,0,19.704,3.135,29.669,9.292
			c8.844,5.486,16.008,12.204,21.496,20.041l161.217,229.177H886.337z"/>
		<polygon fill="#ED1C24" points="836.291,314.846 704.407,314.846 770.573,224.049 		"/>
		<path fill="#034EA2" d="M376.038,160.681c-3.918,7.837-5.934,16.569-5.934,26.197c0,18.361,7.165,33.139,21.495,44.447
			c14.219,11.42,32.468,17.017,54.636,17.017h56.986l17.354-23.959h-81.505l-43.103-63.591h245.297L530.427,314.846h-84.192
			c-44.783,0-81.953-12.428-111.397-37.394c-29.333-24.855-44.111-56.204-44.111-93.821c0-7.948,0.672-15.674,2.015-22.95H376.038z"
			/>
		<path fill="#034EA2" d="M493.928,57.008h188.535h37.058c-5.262,4.479-10.075,9.629-14.218,15.003l-37.281,51.947
			c-70.868,0-141.737,0-212.606,0L493.928,57.008z"/>
		<path fill="#ED1C24" d="M427.09,57.008h46.35l-38.512,66.95c-15.563,0-31.013,0-46.463,0L427.09,57.008z"/>
		<path fill="#034EA2" d="M242.361,123.958v190.888H162.2V123.958H56.065l51.5-66.95h299.036l-38.625,66.95
			C326.104,123.958,284.233,123.958,242.361,123.958z"/>
	</g>
	<g>
		<path fill="#034EA2" d="M303.321,372.502c1.456-1.901,2.239-4.364,2.239-7.39v-0.11c0-3.582-1.008-6.495-3.247-8.621
			c-2.576-2.575-6.158-3.917-10.972-3.917h-1.567h-15.674v37.729h8.284v-11.979h6.494l0.896,1.231l7.277,10.748h9.628l-9.18-13.436
			C299.851,375.86,301.866,374.406,303.321,372.502z M295.484,369.367c-1.008,1.009-2.576,1.457-4.702,1.457h-1.008h-7.39v-10.861
			h7.39h0.896c2.015,0,3.583,0.448,4.814,1.345c1.119,0.896,1.679,2.238,1.679,4.143
			C297.164,367.129,296.604,368.36,295.484,369.367z"/>
		<path fill="#034EA2" d="M388.745,357.948c-1.792-1.792-3.918-3.021-6.382-4.03c-1.792-0.671-3.694-1.12-5.71-1.344
			c-0.784,0-1.567-0.11-2.463-0.11h-14.666v37.729h14.666c0.896,0,1.68,0,2.463-0.112c2.016-0.112,3.918-0.559,5.71-1.343
			c2.463-0.896,4.59-2.241,6.382-3.919c1.679-1.68,3.134-3.694,4.03-6.045c1.008-2.24,1.456-4.703,1.456-7.39v-0.112
			c0-2.688-0.448-5.15-1.456-7.389C391.879,361.532,390.424,359.628,388.745,357.948z M385.609,371.495
			c0,1.68-0.335,3.248-0.896,4.591c-0.56,1.342-1.232,2.575-2.239,3.583c-1.008,1.007-2.239,1.79-3.582,2.238
			c-0.672,0.336-1.456,0.448-2.24,0.671c-0.784,0.113-1.567,0.226-2.463,0.226h-6.381v-22.841h6.381c0.896,0,1.68,0.113,2.463,0.224
			c0.784,0.225,1.568,0.337,2.24,0.673c1.343,0.561,2.574,1.344,3.582,2.353c1.007,1.007,1.68,2.238,2.239,3.58
			c0.56,1.456,0.896,2.913,0.896,4.592V371.495z"/>
		<polygon fill="#034EA2" points="980.213,352.464 980.213,375.75 962.524,352.464 954.911,352.464 954.911,390.192 
			963.084,390.192 963.084,366.233 981.332,390.192 988.386,390.192 988.386,352.464 		"/>
		<path fill="#034EA2" d="M331.646,352.238h-3.694l-16.234,37.954h8.509l3.47-8.397h7.949h7.95l3.47,8.397h8.732l-16.234-37.954
			H331.646z M331.646,374.406h-5.038l5.038-12.203l5.039,12.203H331.646z"/>
		<path fill="#034EA2" d="M940.021,357.5c-1.792-1.679-3.92-3.023-6.383-4.143c-2.463-1.006-5.149-1.454-8.062-1.454
			c-2.91,0-5.598,0.448-8.061,1.454c-2.463,1.119-4.589,2.464-6.381,4.255c-1.68,1.791-3.134,3.808-4.143,6.158
			c-1.008,2.351-1.454,4.926-1.454,7.613v0.111c0,2.687,0.446,5.262,1.454,7.612c1.009,2.352,2.351,4.367,4.143,6.047
			c1.792,1.792,3.918,3.134,6.269,4.255c2.463,1.007,5.151,1.454,8.062,1.454h0.111c2.912,0,5.488-0.447,7.951-1.454
			c2.463-1.121,4.589-2.463,6.381-4.255c1.791-1.792,3.134-3.808,4.143-6.158c1.008-2.352,1.566-4.926,1.566-7.612v-0.112
			c0-2.688-0.559-5.263-1.455-7.613C943.155,361.308,941.7,359.292,940.021,357.5z M936.886,371.495
			c0,1.568-0.224,3.136-0.784,4.591c-0.56,1.342-1.344,2.575-2.352,3.694c-1.007,1.119-2.126,1.902-3.581,2.575
			c-1.346,0.561-2.912,0.895-4.592,0.895s-3.247-0.334-4.589-1.007c-1.344-0.561-2.575-1.456-3.584-2.463
			c-1.007-1.119-1.79-2.353-2.351-3.808c-0.559-1.454-0.896-3.021-0.896-4.589v-0.112c0-1.566,0.338-3.134,0.896-4.59
			c0.561-1.344,1.231-2.687,2.238-3.695c1.008-1.12,2.241-1.904,3.584-2.575c1.342-0.559,2.91-0.896,4.59-0.896h0.111
			c1.568,0,3.136,0.337,4.479,0.896c1.455,0.671,2.687,1.567,3.693,2.575c1.008,1.119,1.792,2.352,2.352,3.806
			c0.561,1.456,0.784,3.023,0.784,4.592V371.495z"/>
		<path fill="#034EA2" d="M247.791,375.638h8.396v5.486c-2.127,1.454-4.702,2.238-7.837,2.238c-1.68,0-3.247-0.336-4.591-0.896
			c-1.456-0.559-2.575-1.454-3.582-2.463c-1.12-1.119-1.903-2.351-2.463-3.805c-0.56-1.455-0.784-3.135-0.784-4.814v-0.112
			c0-1.566,0.224-3.134,0.784-4.59c0.56-1.344,1.343-2.576,2.351-3.695c1.007-1.008,2.127-1.904,3.471-2.575
			c1.344-0.559,2.687-0.896,4.255-0.896c1.007,0,2.015,0.112,2.911,0.225c0.896,0.223,1.791,0.446,2.575,0.783
			c0.672,0.336,1.456,0.784,2.127,1.231c0.784,0.448,1.456,1.007,2.239,1.567l5.15-6.27c-0.896-0.896-1.903-1.567-3.022-2.238
			c-1.008-0.672-2.127-1.121-3.248-1.567c-1.231-0.449-2.463-0.783-3.918-1.009c-1.343-0.225-2.91-0.335-4.59-0.335
			c-2.911,0-5.486,0.448-7.949,1.454c-2.351,1.119-4.478,2.464-6.269,4.255c-1.68,1.791-3.135,3.808-4.031,6.158
			c-1.007,2.351-1.567,4.926-1.567,7.613v0.111c0,2.799,0.56,5.374,1.456,7.725c1.007,2.351,2.351,4.479,4.143,6.159
			c1.679,1.79,3.806,3.134,6.269,4.03c2.352,1.007,5.039,1.454,8.061,1.454c3.359,0,6.494-0.559,9.181-1.679
			c2.687-1.231,4.926-2.576,6.941-4.255v-16.458h-16.458V375.638z"/>
		<polygon fill="#034EA2" points="52.538,360.187 64.07,360.187 64.07,390.192 72.354,390.192 72.354,360.187 83.886,360.187 
			83.886,352.464 52.538,352.464 		"/>
		<path fill="#034EA2" d="M121.391,372.502c1.456-1.901,2.239-4.364,2.239-7.39v-0.11c0-3.582-1.119-6.495-3.247-8.621
			c-2.576-2.575-6.27-3.917-10.972-3.917h-1.567H92.17v37.729h8.285v-11.979h6.493l0.896,1.231l7.165,10.748h9.74l-9.181-13.436
			C117.921,375.86,119.824,374.406,121.391,372.502z M113.554,369.367c-1.119,1.009-2.687,1.457-4.702,1.457h-1.007h-7.389v-10.861
			h7.389h0.783c2.127,0,3.695,0.448,4.814,1.345c1.232,0.896,1.792,2.238,1.792,4.143
			C115.234,367.129,114.674,368.36,113.554,369.367z"/>
		<polygon fill="#034EA2" points="183.975,374.965 201.776,374.965 201.776,367.576 183.975,367.576 183.975,359.853 
			204.127,359.853 204.127,352.464 175.69,352.464 175.69,390.192 204.463,390.192 204.463,382.916 183.975,382.916 		"/>
		<path fill="#034EA2" d="M156.994,374.182c0,2.912-0.672,5.263-2.127,6.718c-1.456,1.566-3.471,2.239-6.045,2.239
			c-2.463,0-4.479-0.783-5.934-2.352c-1.456-1.567-2.127-3.806-2.127-6.939v-21.384h-8.285v21.606c0,5.599,1.455,9.74,4.366,12.538
			c2.911,2.801,6.83,4.255,11.867,4.255c2.576,0,4.814-0.335,6.942-1.119c2.015-0.672,3.695-1.679,5.15-3.136
			c1.455-1.454,2.575-3.246,3.358-5.262c0.784-2.127,1.12-4.702,1.12-7.499v-21.384h-8.285V374.182z"/>
		<polygon fill="#034EA2" points="542.237,360.187 553.769,360.187 553.769,390.192 562.054,390.192 562.054,360.187 
			573.586,360.187 573.586,352.464 542.237,352.464 		"/>
		<rect x="744.431" y="352.464" fill="#034EA2" width="8.285" height="37.729"/>
		<polygon fill="#034EA2" points="632.811,374.965 650.61,374.965 650.61,367.576 632.811,367.576 632.811,359.853 653.073,359.853 
			653.073,352.464 624.638,352.464 624.638,390.192 653.299,390.192 653.299,382.916 632.811,382.916 		"/>
		<polygon fill="#034EA2" points="688.006,375.75 670.314,352.464 662.704,352.464 662.704,390.192 670.877,390.192 
			670.877,366.233 689.125,390.192 696.178,390.192 696.178,352.464 688.006,352.464 		"/>
		<polygon fill="#034EA2" points="704.463,360.187 715.995,360.187 715.995,390.192 724.28,390.192 724.28,360.187 735.699,360.187 
			735.699,352.464 704.463,352.464 		"/>
		<path fill="#034EA2" d="M787.423,382.02c-1.455,0.784-3.247,1.23-5.373,1.23c-1.68,0-3.136-0.334-4.479-1.007
			c-1.342-0.561-2.463-1.456-3.471-2.463c-0.895-1.119-1.68-2.353-2.238-3.808c-0.56-1.454-0.784-3.021-0.784-4.589v-0.112
			c0-1.566,0.225-3.134,0.784-4.59c0.559-1.344,1.344-2.687,2.238-3.695c1.008-1.12,2.129-1.904,3.471-2.575
			c1.344-0.559,2.8-0.896,4.479-0.896c1.901,0,3.581,0.337,5.149,1.12c1.456,0.784,3.023,1.791,4.479,3.135l5.262-6.047
			c-0.895-0.895-1.791-1.68-2.799-2.463c-1.009-0.671-2.128-1.23-3.247-1.79c-1.231-0.448-2.575-0.896-4.029-1.119
			c-1.457-0.338-3.023-0.448-4.814-0.448c-2.912,0-5.599,0.448-7.95,1.454c-2.464,1.119-4.477,2.464-6.269,4.255
			c-1.68,1.791-3.023,3.808-4.03,6.158c-0.896,2.351-1.456,4.926-1.456,7.613v0.111c0,2.687,0.56,5.262,1.456,7.612
			c1.007,2.352,2.351,4.367,4.03,6.159c1.792,1.68,3.805,3.134,6.157,4.143c2.463,1.007,4.926,1.454,7.725,1.454
			c1.904,0,3.472-0.112,5.038-0.447c1.455-0.336,2.799-0.784,4.03-1.344s2.351-1.343,3.359-2.126
			c1.119-0.784,2.126-1.792,3.021-2.801l-5.26-5.372C790.446,380.228,788.989,381.236,787.423,382.02z"/>
		<polygon fill="#034EA2" points="847.544,360.187 859.075,360.187 859.075,390.192 867.36,390.192 867.36,360.187 878.892,360.187 
			878.892,352.464 847.544,352.464 		"/>
		<path fill="#034EA2" d="M526.339,374.182c0,2.912-0.784,5.263-2.238,6.718c-1.455,1.566-3.359,2.239-5.935,2.239
			c-2.574,0-4.59-0.783-6.045-2.352c-1.344-1.567-2.127-3.806-2.127-6.939v-21.384h-8.285v21.606c0,5.599,1.455,9.74,4.367,12.538
			c2.91,2.801,6.94,4.255,11.979,4.255c2.462,0,4.814-0.335,6.829-1.119c2.015-0.672,3.807-1.679,5.264-3.136
			c1.454-1.454,2.463-3.246,3.246-5.262c0.783-2.127,1.23-4.702,1.23-7.499v-21.384h-8.285V374.182z"/>
		<polygon fill="#034EA2" points="605.492,367.465 590.155,367.465 590.155,352.464 581.87,352.464 581.87,390.192 590.155,390.192 
			590.155,375.077 605.492,375.077 605.492,390.192 613.777,390.192 613.777,352.464 605.492,352.464 		"/>
		<path fill="#034EA2" d="M474.504,352.238h-3.808l-16.121,37.954h8.396l3.471-8.397h8.062h7.948l3.47,8.397h8.622l-16.122-37.954
			H474.504z M474.504,374.406h-5.039l5.039-12.203l4.926,12.203H474.504z"/>
		<rect x="887.513" y="352.464" fill="#034EA2" width="8.285" height="37.729"/>
		<path fill="#034EA2" d="M822.466,352.238h-3.808l-16.12,37.954h8.508l3.357-8.397h8.063h7.949l3.471,8.397h8.619l-16.12-37.954
			H822.466z M822.466,374.406h-5.037l5.037-12.203l4.926,12.203H822.466z"/>
		<polygon fill="#034EA2" points="411.808,374.965 429.608,374.965 429.608,367.576 411.808,367.576 411.808,359.853 
			432.071,359.853 432.071,352.464 403.634,352.464 403.634,390.192 432.295,390.192 432.295,382.916 411.808,382.916 		"/>
	</g>
</g>
</svg>
