<svg xmlns="http://www.w3.org/2000/svg" width="550.962" height="409.859" viewBox="0 0 550.962 409.859"><g id="guide-arrow" transform="translate(-382.638 -657.807) rotate(-11)"><path id="Path_3567" data-name="Path 3567" d="M491.8,253.169C474.425,481.41,390.013,541.768,330.39,515.175S85.778,365.519,0,516.22" transform="translate(204.147 602.007) rotate(-5)" fill="none" stroke="#e8098b" stroke-linecap="round" stroke-width="3" stroke-dasharray="15"></path><path id="Path_3568" data-name="Path 3568" d="M19.206,4.72c-3.135,5.15-5.15,10.971-7.836,16.345-1.343,2.463-4.926.224-3.806-2.239,2.015-4.478,3.806-9.18,6.493-13.434-2.015-.224-8.05-1.934-10.289-2.158C2.872,3.01,1.3,3.01.633,2.114L.409,1.891a.219.219,0,0,1-.224-.224A.858.858,0,0,1,.633.323h0C.857.1,1.081.1,1.529.1A19.138,19.138,0,0,1,5.111.1c2.911.224,9.617,1.934,12.528,1.71C18.982,1.585,19.878,3.377,19.206,4.72Z" transform="translate(257.833 1123.055) rotate(143)" fill="#e8098b"></path></g></svg>