<?xml version="1.0" encoding="UTF-8"?>
<svg id="Layer_2" xmlns="http://www.w3.org/2000/svg" viewBox="0 0 192.26 52.22">
  <defs>
    <style>
      .cls-1 {
        fill: #231f20;
      }

      .cls-2 {
        fill: #ffcb05;
      }
    </style>
  </defs>
  <g id="Layer_1-2" data-name="Layer_1">
    <g>
      <polygon class="cls-2" points="161.48 52.22 134.23 52.22 147.93 33.92 161.48 52.22"/>
      <path class="cls-2" d="M76.81.17h9.54l-7.85,13.55h-9.7L76.81.17Z"/>
      <g>
        <path class="cls-1" d="M158.86,5.99c-1.08-1.58-2.62-2.99-4.46-4.07-2-1.25-4-1.91-6.16-1.91-1.85,0-4,.67-6,1.91-2,1.16-3.54,2.49-4.62,4.07l-34.17,46.23h20.47l24.17-32.18,23.86,32.18h20.32L158.86,5.99Z"/>
        <path class="cls-1" d="M70.35,21.12l8.93,12.89h16.93l-3.69,4.82h-11.7c-4.62,0-8.31-1.16-11.39-3.41-2.92-2.33-4.46-5.32-4.46-9.06,0-1.91.46-3.66,1.23-5.24h-17.24c-.15,1.5-.31,2.99-.31,4.66,0,7.57,3.08,13.89,9.08,18.96,6.16,4.99,13.85,7.48,23.09,7.48h17.39l22.94-31.1h-50.8Z"/>
        <path class="cls-1" d="M134.38,3.24c.92-1.17,1.85-2.16,2.92-3.08h-46.64l-8,13.55h44.03l7.7-10.48Z"/>
        <path class="cls-1" d="M72.66.17H10.78L0,13.72h22.01v38.5h16.62V13.72h26.01L72.66.17Z"/>
      </g>
    </g>
  </g>
</svg>