<?xml version="1.0" encoding="UTF-8"?>
<svg id="Layer_2" xmlns="http://www.w3.org/2000/svg" viewBox="0 0 191.32 53.04">
  <defs>
    <style>
      .cls-1 {
        fill: #fff;
      }

      .cls-2 {
        fill: #ffcb05;
      }
    </style>
  </defs>
  <g id="Layer_1-2" data-name="Layer_1">
    <g>
      <path class="cls-1" d="M171.08,53.04l-23.76-32.81-23.91,32.81h-20.54L136.9,5.98c1.23-1.53,2.61-2.91,4.6-4.14,2.15-1.23,4.14-1.84,6.13-1.84s3.99.61,6.13,1.84c1.69,1.07,3.22,2.46,4.29,4.14l33.26,47.06h-20.24Z"/>
      <polygon class="cls-2" points="160.66 53.04 133.53 53.04 147.17 34.34 160.66 53.04"/>
      <path class="cls-1" d="M65.92,21.31c-.92,1.53-1.23,3.37-1.23,5.37,0,3.83,1.38,6.9,4.45,9.2,2.91,2.3,6.59,3.52,11.19,3.52h11.8l3.53-4.9h-16.86l-8.89-13.18h50.59l-22.84,31.73h-17.32c-9.2,0-16.86-2.61-23-7.67-5.98-5.21-9.04-11.65-9.04-19.31,0-1.69.15-3.22.46-4.75h17.17Z"/>
      <path class="cls-1" d="M90.14.15h46.45c-1.07.92-1.99,1.84-2.92,3.07l-7.66,10.58h-43.84L90.14.15Z"/>
      <path class="cls-2" d="M76.34.15h9.66l-7.97,13.64h-9.66L76.34.15Z"/>
      <path class="cls-1" d="M38.33,13.8v39.25h-16.56V13.8H0L10.58.15h61.63l-7.97,13.64h-25.91Z"/>
    </g>
  </g>
</svg>